<?xml version="1.0" encoding="UTF-8" standalone="no"?>
<!-- Created with Inkscape (http://www.inkscape.org/) -->
<svg xmlns:dc="http://purl.org/dc/elements/1.1/" xmlns:cc="http://creativecommons.org/ns#" xmlns:rdf="http://www.w3.org/1999/02/22-rdf-syntax-ns#" xmlns:svg="http://www.w3.org/2000/svg" xmlns="http://www.w3.org/2000/svg" xmlns:sodipodi="http://sodipodi.sourceforge.net/DTD/sodipodi-0.dtd" xmlns:inkscape="http://www.inkscape.org/namespaces/inkscape" width="12in" height="12in" viewBox="0 0 304.8 304.80001" version="1.1" id="svg8" inkscape:version="0.92.4 (5da689c313, 2019-01-14)" sodipodi:docname="House2.svg">
  <defs id="defs2"/>
  
  
  <g inkscape:label="Layer 1" inkscape:groupmode="layer" id="layer1" transform="translate(0,7.8000169)">
    <path id="path989" inkscape:label="part" style="fill:none;stroke:#000000;stroke-width:1;stroke-opacity:1" d="m 228.44081,38.567588 7.00666,-7.0082 -2.12156,-2.12109 7.19757,-7.19913 2.12154,2.12109 6.94303,-6.94455 -2.12154,-2.12108 7.19755,-7.1991388 2.12156,2.1210888 7.00667,-7.0081879" inkscape:connector-curvature="0"/>
    <path id="path993" inkscape:label="part" style="fill:none;stroke:#000000;stroke-width:1;stroke-opacity:1" d="m 288.79109,106.78138 h -9.91 v 3 h -10.18 v -3 h -9.82 v 3 h -10.18 v -3 h -9.91" inkscape:connector-curvature="0"/>
    <path id="path995" inkscape:label="part" style="fill:none;stroke:#000000;stroke-width:1;stroke-opacity:1" d="m 238.79316,106.78016 -1.2522,-8.245451 2.966,-0.450427 -1.47442,-9.708664 -2.96599,0.45043 -1.71614,-11.30043 2.96599,-0.45043 -1.47441,-9.70868 -2.96599,0.45043 -1.71615,-11.30043 2.96599,-0.45043 -1.47441,-9.70869 -2.96599,0.45044 -1.2522,-8.24546" inkscape:connector-curvature="0"/>
    <path id="path997" inkscape:label="part" style="fill:none;stroke:#000000;stroke-width:1;stroke-opacity:1" d="m 107.22708,5.0708312 v 8.1599978 h 3 v 10.18 h -3 v 11.07 h 3 v 10.18 h -3 v 11.07 h 3 v 10.18 h -3 v 8.16" inkscape:connector-curvature="0"/>
    <path id="path999" inkscape:label="part" style="fill:none;stroke:#000000;stroke-width:1;stroke-opacity:1" d="m 107.22708,74.070829 h -8.909997 v 3 h -10.18 v -3 h -11.82 v 3 h -10.18 v -3 h -11.82 v 3 h -10.18 v -3 H 32.317081 v 3 H 22.137084 v -3 h -8.91" inkscape:connector-curvature="0"/>
    <path id="path1001" inkscape:label="part" style="fill:none;stroke:#000000;stroke-width:1;stroke-opacity:1" d="m 13.227084,74.070829 v -8.16 h -3 v -10.18 h 3 v -11.07 h -3 v -10.18 h 3 v -11.07 h -3 v -10.18 h 3 V 5.0708312" inkscape:connector-curvature="0"/>
    <path id="path1003" inkscape:label="part" style="fill:none;stroke:#000000;stroke-width:1;stroke-opacity:1" d="m 13.227084,5.0708312 h 8.91 v -3 h 10.179997 v 3 h 11.820002 v -3 h 10.18 v 3 h 11.82 v -3 h 10.18 v 3 h 11.82 v -3 h 10.18 v 3 h 8.909997" inkscape:connector-curvature="0"/>
    <path id="path1005" inkscape:label="part" style="fill:none;stroke:#000000;stroke-width:1;stroke-opacity:1" d="m 110.22708,78.483328 v 10.09 h -3 v 9.819974 h 3 v 10.179988 h -3 v 9.82 h 3 v 10.09" inkscape:connector-curvature="0"/>
    <path id="path1007" inkscape:label="part" style="fill:none;stroke:#000000;stroke-width:1;stroke-opacity:1" d="M 110.22708,128.48329 H 98.137083 v -3 h -9.82 v 3 h -12.18 v -3 h -9.82 v 3 h -12.18 v -3 h -9.82 v 3 H 32.137081 v -3 h -9.819997 v 3 h -12.09" inkscape:connector-curvature="0"/>
    <path id="path1009" inkscape:label="part" style="fill:none;stroke:#000000;stroke-width:1;stroke-opacity:1" d="m 10.227084,128.48329 v -10.09 h 3 v -9.81999 h -3 V 98.393302 h 3 v -9.819973 h -3 V 78.483328" inkscape:connector-curvature="0"/>
    <path id="path1011" inkscape:label="part" style="fill:none;stroke:#000000;stroke-width:1;stroke-opacity:1" d="m 10.227084,78.483328 h 12.09 v 3 h 9.819997 v -3 h 12.180002 v 3 h 9.82 v -3 h 12.18 v 3 h 9.82 v -3 h 12.18 v 3 h 9.82 v -3 h 12.089997" inkscape:connector-curvature="0"/>
    <path id="path1013" inkscape:label="part" style="fill:none;stroke:#000000;stroke-width:1;stroke-opacity:1" d="m 107.22708,132.89578 v 8.16 h 3 v 10.18 h -3 v 11.07 h 3 v 10.18 h -3 v 11.07 h 3 v 10.18 h -3 v 8.16" inkscape:connector-curvature="0"/>
    <path id="path1015" inkscape:label="part" style="fill:none;stroke:#000000;stroke-width:1;stroke-opacity:1" d="m 107.22708,201.89578 h -8.909997 v 3 h -10.18 v -3 h -11.82 v 3 h -10.18 v -3 h -11.82 v 3 h -10.18 v -3 H 32.317081 v 3 H 22.137084 v -3 h -8.91" inkscape:connector-curvature="0"/>
    <path id="path1017" inkscape:label="part" style="fill:none;stroke:#000000;stroke-width:1;stroke-opacity:1" d="m 13.227084,201.89578 v -8.16 h -3 v -10.18 h 3 v -11.07 h -3 v -10.18 h 3 v -11.07 h -3 v -10.18 h 3 v -8.16" inkscape:connector-curvature="0"/>
    <path id="path1019" inkscape:label="part" style="fill:none;stroke:#000000;stroke-width:1;stroke-opacity:1" d="m 13.227084,132.89578 h 8.91 v -3 h 10.179997 v 3 h 11.820002 v -3 h 10.18 v 3 h 11.82 v -3 h 10.18 v 3 h 11.82 v -3 h 10.18 v 3 h 8.909997" inkscape:connector-curvature="0"/>
    <path style="fill:none;stroke:#000000;stroke-width:1;stroke-opacity:1" d="m 218.43441,17.178368 h -3 v 9.82 h 3" id="path1141" inkscape:connector-curvature="0"/>
    <path style="fill:none;stroke:#000000;stroke-width:1;stroke-opacity:1" d="m 218.43441,17.178368 v 9.82" id="path1139" inkscape:connector-curvature="0" sodipodi:nodetypes="cc"/>
    <path style="fill:none;stroke:#000000;stroke-width:1;stroke-opacity:1" d="m 218.43441,37.178372 h -3 v 9.82 h 3" id="path1021" inkscape:connector-curvature="0"/>
    <path style="fill:none;stroke:#000000;stroke-width:1;stroke-opacity:1" d="m 206.34442,56.559205 v -3 h -9.82 v 3" id="path1126" inkscape:connector-curvature="0"/>
    <path style="fill:none;stroke:#000000;stroke-width:1;stroke-opacity:1" d="m 206.34442,56.559205 h -9.82" id="path1124" inkscape:connector-curvature="0" sodipodi:nodetypes="cc"/>
    <path style="fill:none;stroke:#000000;stroke-width:1;stroke-opacity:1" d="m 184.34442,56.559205 v -3 h -9.82 v 3" id="path1122" inkscape:connector-curvature="0"/>
    <path style="fill:none;stroke:#000000;stroke-width:1;stroke-opacity:1" d="m 184.34442,56.559205 h -9.82" id="path1120" inkscape:connector-curvature="0" sodipodi:nodetypes="cc"/>
    <path style="fill:none;stroke:#000000;stroke-width:1;stroke-opacity:1" d="m 162.34442,56.559205 v -3 h -9.82 v 3" id="path1118" inkscape:connector-curvature="0"/>
    <path style="fill:none;stroke:#000000;stroke-width:1;stroke-opacity:1" d="m 162.34442,56.559205 h -9.82" id="path1116" inkscape:connector-curvature="0" sodipodi:nodetypes="cc"/>
    <path style="fill:none;stroke:#000000;stroke-width:1;stroke-opacity:1" d="m 140.34442,56.559205 v -3 h -9.82 v 3" id="path1023" inkscape:connector-curvature="0"/>
    <path inkscape:connector-curvature="0" d="m 288.78763,106.77726 1.2522,-8.245441 -2.966,-0.450437 1.47442,-9.708664 2.96599,0.45043 1.71614,-11.30043 -2.96599,-0.45043 1.47441,-9.70868 2.966,0.45043 1.71614,-11.30043 -2.96599,-0.45043 1.47441,-9.70868 2.96599,0.45043 1.2522,-8.24546" style="fill:none;stroke:#000000;stroke-width:1;stroke-opacity:1" inkscape:label="part" id="path1070"/>
    <path inkscape:connector-curvature="0" d="m 299.13499,38.567588 -7.00667,-7.0082 2.12156,-2.12109 -7.19756,-7.19913 -2.12155,2.12109 -6.94303,-6.94455 2.12154,-2.12108 -7.19755,-7.1991388 -2.12156,2.1210888 -7.00667,-7.0081879" style="fill:none;stroke:#000000;stroke-width:1;stroke-opacity:1" inkscape:label="part" id="path1080"/>
    <path inkscape:connector-curvature="0" d="m 43.826536,276.71301 -7.997761,-5.85183 -1.771491,2.42113 -8.215664,-6.01127 1.771482,-2.42111 -7.925124,-5.79868 -1.771493,2.42111 -8.2156737,-6.01124 1.7714917,-2.42113 -7.9977631,-5.85183" style="fill:none;stroke:#000000;stroke-width:1;stroke-opacity:1" inkscape:label="part" id="path1082"/>
    <path inkscape:connector-curvature="0" d="m 102.00286,206.63591 1.51635,9.79331 2.96468,-0.45903 1.55765,10.06012 -2.96467,0.45903 1.50257,9.70437 2.96467,-0.45903 1.55765,10.06012 -2.96467,0.45903 1.51634,9.79331" style="fill:none;stroke:#000000;stroke-width:1;stroke-opacity:1" inkscape:label="part" id="path1084"/>
    <path inkscape:connector-curvature="0" d="m 109.65192,256.04528 -7.95679,2.49909 -0.89897,-2.86214 -9.368763,2.94258 0.898957,2.86215 -10.904763,3.42502 -0.898965,-2.86214 -9.368754,2.94259 0.898955,2.86214 -10.904772,3.42503 -0.898955,-2.86214 -9.368754,2.94258 0.898955,2.86214 -7.956765,2.49911" style="fill:none;stroke:#000000;stroke-width:0.99060005;stroke-miterlimit:4;stroke-dasharray:none;stroke-opacity:1" inkscape:label="part" id="path1086"/>
    <path id="path1088" inkscape:label="part" style="fill:none;stroke:#000000;stroke-width:1;stroke-opacity:1" d="m 101.99933,206.63996 -8.339984,0.0242 0.0087,3 -9.819968,0.0285 -0.0087,-2.99999 -11.42995,0.0332 0.0087,2.99999 -9.819966,0.0285 -0.0087,-2.99999 -11.42996,0.0332 0.0087,2.99998 -9.819956,0.0285 -0.0087,-2.99998 -8.339966,0.0242" inkscape:connector-curvature="0"/>
    <path id="path1090" inkscape:label="part" style="fill:none;stroke:#000000;stroke-width:1;stroke-opacity:1" d="m 33.009546,206.85129 -5.853567,7.99649 -2.420735,-1.77203 -6.01305,8.21435 2.420723,1.77202 -5.800404,7.92387 -2.420733,-1.77201 -6.0130631,8.21434 2.4207352,1.77203 -5.8535672,7.99649" inkscape:connector-curvature="0"/>
    <path inkscape:connector-curvature="0" id="path1128" d="m 140.34442,56.559205 h -9.82" style="fill:none;stroke:#000000;stroke-width:1;stroke-opacity:1" sodipodi:nodetypes="cc"/>
    <path inkscape:connector-curvature="0" id="path1143" d="m 218.43441,37.178372 v 9.82" style="fill:none;stroke:#000000;stroke-width:1;stroke-opacity:1" sodipodi:nodetypes="cc"/>
    <path id="path1152" d="m 118.43441,17.178368 h 3 v 9.82 h -3" style="fill:none;stroke:#000000;stroke-width:1;stroke-opacity:1" inkscape:connector-curvature="0"/>
    <path sodipodi:nodetypes="cc" inkscape:connector-curvature="0" id="path1154" d="m 118.43441,17.178368 v 9.82" style="fill:none;stroke:#000000;stroke-width:1;stroke-opacity:1"/>
    <path id="path1156" d="m 118.43441,37.178372 h 3 v 9.82 h -3" style="fill:none;stroke:#000000;stroke-width:1;stroke-opacity:1" inkscape:connector-curvature="0"/>
    <path sodipodi:nodetypes="cc" style="fill:none;stroke:#000000;stroke-width:1;stroke-opacity:1" d="m 118.43441,37.178372 v 9.82" id="path1158" inkscape:connector-curvature="0"/>
    <path sodipodi:nodetypes="cccccccc" inkscape:connector-curvature="0" id="path1160" d="m 118.43441,3.71493 h -6.54208 v 69.387212 h 6.54208 100 6.54207 V 3.72078 h -6.54207" style="opacity:1;fill:none;fill-opacity:1;stroke:#000000;stroke-width:0.99060005;stroke-linejoin:miter;stroke-miterlimit:4;stroke-dasharray:none;stroke-dashoffset:0;stroke-opacity:1"/>
    <path id="path1162" d="m 218.3629,130.49792 h -3 v -9.82001 h 3" style="fill:none;stroke:#000000;stroke-width:1;stroke-opacity:1" inkscape:connector-curvature="0"/>
    <path sodipodi:nodetypes="cc" inkscape:connector-curvature="0" id="path1164" d="m 218.3629,130.49792 v -9.82001" style="fill:none;stroke:#000000;stroke-width:1;stroke-opacity:1"/>
    <path id="path1166" d="m 218.3629,110.49791 h -3 v -9.82 h 3" style="fill:none;stroke:#000000;stroke-width:1;stroke-opacity:1" inkscape:connector-curvature="0"/>
    <path id="path1168" d="m 206.27291,91.117105 v 3 h -9.82 v -3" style="fill:none;stroke:#000000;stroke-width:1;stroke-opacity:1" inkscape:connector-curvature="0"/>
    <path sodipodi:nodetypes="cc" inkscape:connector-curvature="0" id="path1170" d="m 206.27291,91.117105 h -9.82" style="fill:none;stroke:#000000;stroke-width:1;stroke-opacity:1"/>
    <path id="path1172" d="m 184.27291,91.117105 v 3 h -9.82 v -3" style="fill:none;stroke:#000000;stroke-width:1;stroke-opacity:1" inkscape:connector-curvature="0"/>
    <path sodipodi:nodetypes="cc" inkscape:connector-curvature="0" id="path1174" d="m 184.27291,91.117105 h -9.82" style="fill:none;stroke:#000000;stroke-width:1;stroke-opacity:1"/>
    <path id="path1176" d="m 162.27291,91.117105 v 3 h -9.82 v -3" style="fill:none;stroke:#000000;stroke-width:1;stroke-opacity:1" inkscape:connector-curvature="0"/>
    <path sodipodi:nodetypes="cc" inkscape:connector-curvature="0" id="path1178" d="m 162.27291,91.117105 h -9.82" style="fill:none;stroke:#000000;stroke-width:1;stroke-opacity:1"/>
    <path id="path1180" d="m 140.27291,91.117105 v 3 h -9.82 v -3" style="fill:none;stroke:#000000;stroke-width:1;stroke-opacity:1" inkscape:connector-curvature="0"/>
    <path sodipodi:nodetypes="cc" style="fill:none;stroke:#000000;stroke-width:1;stroke-opacity:1" d="m 140.27291,91.117105 h -9.82" id="path1186" inkscape:connector-curvature="0"/>
    <path sodipodi:nodetypes="cc" style="fill:none;stroke:#000000;stroke-width:1;stroke-opacity:1" d="m 218.3629,110.49791 v -9.82" id="path1188" inkscape:connector-curvature="0"/>
    <path sodipodi:nodetypes="cccccccc" inkscape:connector-curvature="0" id="path1190" d="m 215.43441,140.58718 9.47056,7.4e-4 V 74.574178 h -6.54207 -100 -6.54208 v 66.013742 h 9.61527" style="opacity:1;fill:none;fill-opacity:1;stroke:#000000;stroke-width:0.99060005;stroke-linejoin:miter;stroke-miterlimit:4;stroke-dasharray:none;stroke-dashoffset:0;stroke-opacity:1"/>
    <path inkscape:connector-curvature="0" style="fill:none;stroke:#000000;stroke-width:1;stroke-opacity:1" d="m 118.3629,130.49792 h 3 v -9.82001 h -3" id="path1192"/>
    <path style="fill:none;stroke:#000000;stroke-width:1;stroke-opacity:1" d="m 118.3629,130.49792 v -9.82001" id="path1194" inkscape:connector-curvature="0" sodipodi:nodetypes="cc"/>
    <path inkscape:connector-curvature="0" style="fill:none;stroke:#000000;stroke-width:1;stroke-opacity:1" d="m 118.3629,110.49791 h 3 v -9.82 h -3" id="path1196"/>
    <path inkscape:connector-curvature="0" id="path1198" d="m 118.3629,110.49791 v -9.82" style="fill:none;stroke:#000000;stroke-width:1;stroke-opacity:1" sodipodi:nodetypes="cc"/>
    <path inkscape:connector-curvature="0" d="m 218.43441,3.72078 h -12.08999 v 3.0000001 h -9.82 V 3.72078 h -12.18 v 3.0000001 h -9.82 V 3.72078 h -12.18 v 3.0000001 h -9.82 V 3.72078 h -12.18 v 3.0000001 h -9.82 V 3.72078 l -12.09001,-0.006" style="fill:none;stroke:#000000;stroke-width:1;stroke-opacity:1" inkscape:label="part" id="path1206" sodipodi:nodetypes="cccccccccccccccccc"/>
    <path inkscape:connector-curvature="0" d="m 121.43609,140.58792 8.90833,-7.4e-4 v 3 h 10.18 v -3 h 11.82 v 3 h 10.18 v -3 h 11.82 v 3 h 10.18 v -3 h 11.82 v 3 h 10.17999 v -3 h 8.91" style="fill:none;stroke:#000000;stroke-width:1;stroke-opacity:1" inkscape:label="part" id="path1208" sodipodi:nodetypes="cccccccccccccccccc"/>
    <rect style="opacity:1;fill:none;fill-opacity:1;stroke:#000000;stroke-width:0.3790122;stroke-linejoin:miter;stroke-miterlimit:4;stroke-dasharray:none;stroke-dashoffset:0;stroke-opacity:1" id="rect1210" width="11.095173" height="11.095173" x="47.117504" y="19.685574"/>
    <rect y="19.685574" x="61.563488" height="11.095173" width="11.095173" id="rect1214" style="opacity:1;fill:none;fill-opacity:1;stroke:#000000;stroke-width:0.3790122;stroke-linejoin:miter;stroke-miterlimit:4;stroke-dasharray:none;stroke-dashoffset:0;stroke-opacity:1"/>
    <rect y="33.902981" x="47.117504" height="11.095173" width="11.095173" id="rect1216" style="opacity:1;fill:none;fill-opacity:1;stroke:#000000;stroke-width:0.3790122;stroke-linejoin:miter;stroke-miterlimit:4;stroke-dasharray:none;stroke-dashoffset:0;stroke-opacity:1"/>
    <rect style="opacity:1;fill:none;fill-opacity:1;stroke:#000000;stroke-width:0.3790122;stroke-linejoin:miter;stroke-miterlimit:4;stroke-dasharray:none;stroke-dashoffset:0;stroke-opacity:1" id="rect1218" width="11.095173" height="11.095173" x="61.563488" y="33.902981"/>
    <rect style="opacity:1;fill:none;fill-opacity:1;stroke:#ff0000;stroke-width:1.01258314;stroke-linejoin:miter;stroke-miterlimit:4;stroke-dasharray:none;stroke-dashoffset:0;stroke-opacity:1" id="rect1228" width="30.582514" height="30.811172" x="44.559174" y="16.819017"/>
    <rect y="162.25275" x="47.117504" height="11.095173" width="11.095173" id="rect1240" style="opacity:1;fill:none;fill-opacity:1;stroke:#000000;stroke-width:0.3790122;stroke-linejoin:miter;stroke-miterlimit:4;stroke-dasharray:none;stroke-dashoffset:0;stroke-opacity:1"/>
    <rect style="opacity:1;fill:none;fill-opacity:1;stroke:#000000;stroke-width:0.3790122;stroke-linejoin:miter;stroke-miterlimit:4;stroke-dasharray:none;stroke-dashoffset:0;stroke-opacity:1" id="rect1242" width="11.095173" height="11.095173" x="61.563488" y="162.25275"/>
    <rect style="opacity:1;fill:none;fill-opacity:1;stroke:#000000;stroke-width:0.3790122;stroke-linejoin:miter;stroke-miterlimit:4;stroke-dasharray:none;stroke-dashoffset:0;stroke-opacity:1" id="rect1244" width="11.095173" height="11.095173" x="47.117504" y="176.47015"/>
    <rect y="176.47015" x="61.563488" height="11.095173" width="11.095173" id="rect1246" style="opacity:1;fill:none;fill-opacity:1;stroke:#000000;stroke-width:0.3790122;stroke-linejoin:miter;stroke-miterlimit:4;stroke-dasharray:none;stroke-dashoffset:0;stroke-opacity:1"/>
    <rect y="159.3862" x="44.559174" height="30.811172" width="30.582514" id="rect1248" style="opacity:1;fill:none;fill-opacity:1;stroke:#ff0000;stroke-width:1.01258314;stroke-linejoin:miter;stroke-miterlimit:4;stroke-dasharray:none;stroke-dashoffset:0;stroke-opacity:1"/>
    <path style="opacity:1;fill:none;fill-opacity:1;stroke:#000000;stroke-width:0.99060005;stroke-linejoin:miter;stroke-miterlimit:4;stroke-dasharray:none;stroke-dashoffset:0;stroke-opacity:1" d="M 275.17968,101.68632 H 252.29322 V 75.681298 c 0,-4.18723 2.18106,-8.05639 5.72161,-10.15001 3.54055,-2.09362 7.90268,-2.09362 11.44323,0 3.54055,2.09362 5.72162,5.96278 5.72162,10.15001 z" id="rect1276" inkscape:connector-curvature="0" sodipodi:nodetypes="cccsscc"/>
    <rect style="opacity:1;fill:none;fill-opacity:0.09591441;stroke:#000000;stroke-width:1.19762635;stroke-linejoin:miter;stroke-miterlimit:4;stroke-dasharray:none;stroke-dashoffset:0;stroke-opacity:1" id="rect892" width="126.05833" height="184.72437" x="144.98724" y="-297.04364" transform="rotate(90)"/>
  </g>
  <g id="g867" inkscape:groupmode="layer" inkscape:label="newlayer"/>
  <g id="g948" inkscape:groupmode="layer" inkscape:label="newlayer"/>
  <g id="g1040" inkscape:groupmode="layer" inkscape:label="newlayer"/>
</svg>
